# xmcd
#
# Track frame offsets:
# 150
# 17979
# 33785
# 48685
# 61618
# 79834
# 91732
# 113272
# 127027
# 141186
# 157336
# 170278
# 191788
# 207721
# 220575
# 237304
# 254769
# 265886
# 284690
# 297790
#
# Disc length: 4242 seconds
#
#
# Revision: 0
# Processed by: cddbd v1.5PL3 Copyright (c) Steve Scherf et al.
# Submitted via: FreeRIP 2.60 
#
DISCID=2f109014
DTITLE=Bruno e Marrone - As 20 Mais
DYEAR=1900
DGENRE=sertanejo
TTITLE0=Vai dar Namoro
TTITLE1=Ligação Urbana
TTITLE2=Programa de Fim de Semana
TTITLE3=Pra lá que eu Vou
TTITLE4=Raio de Luar
TTITLE5=Tá Liberado
TTITLE6=Será
TTITLE7=Credo em Cruz Ave-Maria
TTITLE8=Passou da Conta
TTITLE9=Doce Desejo
TTITLE10=Feriado Nacional
TTITLE11=Por um Minuto
TTITLE12=Trânsito Parado
TTITLE13=Dormi na Praça
TTITLE14=Um Bom Perdedor
TTITLE15=Inevitável
TTITLE16=Favo de Mel
TTITLE17=Agora Vai
TTITLE18=24 Horas de Amor
TTITLE19=Se Tiver Coragem Joga Fora
EXTD=
EXTT0=
EXTT1=
EXTT2=
EXTT3=
EXTT4=
EXTT5=
EXTT6=
EXTT7=
EXTT8=
EXTT9=
EXTT10=
EXTT11=
EXTT12=
EXTT13=
EXTT14=
EXTT15=
EXTT16=
EXTT17=
EXTT18=
EXTT19=
PLAYORDER=
